# xmcd
#
# Track frame offsets:
#	182
#	16385
#	36517
#	50230
#	63020
#	78197
#	95235
#	110555
#	123622
#	137192
#	157057
#	173745
#
# Disc length: 2617 seconds
#
# Revision: 4
# Processed by: cddbd v1.5.2PL0 Copyright (c) Steve Scherf et al.
# Submitted via: EasyCDDAExtractor 15.3.0.1
#
DISCID=ab0a370c
DTITLE=Ednita Nazario - Super Exitos Originales
DYEAR=1990
DGENRE=Latin
TTITLE0=Abrazame
TTITLE1=Aqui Estoy Yo
TTITLE2=Vete Vete
TTITLE3=Ya Ya (Dejame En Paz)
TTITLE4=Mujer Sola
TTITLE5=Yo Lo Siento Ahora
TTITLE6=Mio
TTITLE7=Un Amor De Ayer
TTITLE8=Asi Es El Amor
TTITLE9=Encuentro
TTITLE10=Mi Remedio Es Cantar
TTITLE11=Minuetto
EXTD=
EXTT0=
EXTT1=
EXTT2=
EXTT3=
EXTT4=
EXTT5=
EXTT6=
EXTT7=
EXTT8=
EXTT9=
EXTT10=
EXTT11=
PLAYORDER=
